<svg width="24" height="24" viewBox="0 0 24 24" fill="none" xmlns="http://www.w3.org/2000/svg">
<g clip-path="url(#clip0_818_2904)">
<g clip-path="url(#clip1_818_2904)">
<path d="M2.28926 19.7083C2.28926 19.7083 1.12646 6.92291 7.30946 4.21271C7.30946 4.21271 9.00926 1.74911 12.8031 2.14331C16.5969 2.53751 19.4943 5.45951 20.4645 8.10491C21.1875 10.0753 21.9027 14.2477 21.7893 19.0819C21.7761 19.6429 21.4743 20.1577 20.9949 20.4493C19.9485 21.0853 17.5227 21.9007 11.9649 21.9007C2.84966 21.9007 2.28926 19.7083 2.28926 19.7083Z" fill="#F26300"/>
<path d="M14.8385 10.4416C11.4917 9.94421 9.31487 7.72721 8.61767 6.91601C8.52287 6.80561 8.34407 6.85421 8.31767 6.99701C8.15507 7.88381 7.57847 10.141 5.74367 11.7766C5.74367 11.7766 5.43587 12.0118 5.09087 12.475C4.58447 13.1548 4.38467 14.0206 4.52807 14.8564C5.15507 18.5086 8.20727 21.28 11.8805 21.28C15.3329 21.28 18.2375 18.8314 19.0949 15.5044C19.5215 13.0336 18.0257 10.9156 14.8385 10.4416Z" fill="#FFC84D"/>
<path d="M9.63165 14.1909C10.0909 14.1909 10.4632 13.7442 10.4632 13.1931C10.4632 12.642 10.0909 12.1953 9.63165 12.1953C9.17237 12.1953 8.80005 12.642 8.80005 13.1931C8.80005 13.7442 9.17237 14.1909 9.63165 14.1909Z" fill="black"/>
<path d="M14.0214 14.1909C14.4807 14.1909 14.853 13.7442 14.853 13.1931C14.853 12.642 14.4807 12.1953 14.0214 12.1953C13.5621 12.1953 13.1898 12.642 13.1898 13.1931C13.1898 13.7442 13.5621 14.1909 14.0214 14.1909Z" fill="black"/>
<path d="M12.8607 17.5762C13.0473 17.5762 13.1793 17.755 13.1301 17.935C12.9729 18.508 12.4485 18.9286 11.8257 18.9286C11.2029 18.9286 10.6785 18.5074 10.5213 17.935C10.4721 17.755 10.6041 17.5762 10.7907 17.5762H12.8607Z" fill="#5C2F17"/>
</g>
</g>
<defs>
<clipPath id="clip0_818_2904">
<rect width="24" height="24" fill="white"/>
</clipPath>
<clipPath id="clip1_818_2904">
<rect width="24" height="24" fill="white"/>
</clipPath>
</defs>
</svg>
