<svg width="41" height="41" viewBox="0 0 41 41" fill="none" xmlns="http://www.w3.org/2000/svg">
<g clip-path="url(#clip0_925_2994)">
<path d="M8.9783 21.0679H31.5223C32.2773 21.0679 32.8883 21.6799 32.8883 22.4339V35.5569C32.8883 36.3119 32.2763 36.9229 31.5223 36.9229H8.9783C8.2233 36.9229 7.6123 36.3109 7.6123 35.5569V22.4339C7.6123 21.6789 8.2243 21.0679 8.9783 21.0679Z" fill="#424F57"/>
<path d="M33.0951 17.833H7.40507C6.82297 17.833 6.35107 18.3049 6.35107 18.887V23.347C6.35107 23.9291 6.82297 24.401 7.40507 24.401H33.0951C33.6772 24.401 34.1491 23.9291 34.1491 23.347V18.887C34.1491 18.3049 33.6772 17.833 33.0951 17.833Z" fill="#424F57"/>
<path d="M11.0472 4.92285H29.4532C30.1402 4.92285 30.6962 5.47985 30.6962 6.16585V19.2549C30.6962 19.9419 30.1392 20.4979 29.4532 20.4979H11.0472C10.3602 20.4979 9.8042 19.9409 9.8042 19.2549V6.16585C9.8042 5.47885 10.3612 4.92285 11.0472 4.92285Z" fill="#E5E9EE"/>
<path d="M15.8993 12.385C17.0011 12.385 17.8943 11.4918 17.8943 10.39C17.8943 9.28821 17.0011 8.39502 15.8993 8.39502C14.7975 8.39502 13.9043 9.28821 13.9043 10.39C13.9043 11.4918 14.7975 12.385 15.8993 12.385Z" fill="#F26300"/>
<path d="M15.8991 13.252C18.6291 13.252 19.6791 15.142 19.6791 15.982C19.6791 16.822 17.4741 17.032 15.8991 17.032C14.3241 17.032 12.1191 16.822 12.1191 15.982C12.1191 15.037 13.1691 13.252 15.8991 13.252Z" fill="#F26300"/>
<path d="M27.9181 10.4631H21.9061C21.5531 10.4631 21.2671 10.1771 21.2671 9.82406C21.2671 9.47106 21.5531 9.18506 21.9061 9.18506H27.9181C28.2711 9.18506 28.5571 9.47106 28.5571 9.82406C28.5571 10.1771 28.2711 10.4631 27.9181 10.4631Z" fill="#D0D5DA"/>
<path d="M27.9181 13.3498H23.8421C23.4891 13.3498 23.2031 13.0638 23.2031 12.7108C23.2031 12.3578 23.4891 12.0718 23.8421 12.0718H27.9181C28.2711 12.0718 28.5571 12.3578 28.5571 12.7108C28.5571 13.0638 28.2711 13.3498 27.9181 13.3498Z" fill="#D0D5DA"/>
<path d="M27.9181 16.235H23.8421C23.4891 16.235 23.2031 15.949 23.2031 15.596C23.2031 15.243 23.4891 14.957 23.8421 14.957H27.9181C28.2711 14.957 28.5571 15.243 28.5571 15.596C28.5571 15.949 28.2711 16.235 27.9181 16.235Z" fill="#D0D5DA"/>
<path d="M11.0472 21.7349H29.4532C30.1402 21.7349 30.6962 22.2919 30.6962 22.9779V32.9059C30.6962 33.5929 30.1392 34.1489 29.4532 34.1489H11.0472C10.3602 34.1489 9.8042 33.5919 9.8042 32.9059V22.9779C9.8042 22.2909 10.3612 21.7349 11.0472 21.7349Z" fill="#AFB7C0"/>
<path d="M11.0472 21.7349H29.4532C30.1402 21.7349 30.6962 22.2919 30.6962 22.9779V30.7979C30.6962 31.4849 30.1392 32.0409 29.4532 32.0409H11.0472C10.3602 32.0409 9.8042 31.4839 9.8042 30.7979V22.9779C9.8042 22.2909 10.3612 21.7349 11.0472 21.7349Z" fill="#E5E9EE"/>
<path d="M14.1928 23.1838C13.7558 23.1838 13.4028 22.8298 13.4028 22.3938V19.8388C13.4028 19.4018 13.7568 19.0488 14.1928 19.0488C14.6288 19.0488 14.9828 19.4028 14.9828 19.8388V22.3938C14.9828 22.8308 14.6288 23.1838 14.1928 23.1838Z" fill="#8595AA"/>
<path d="M26.3066 23.1838C25.8696 23.1838 25.5166 22.8298 25.5166 22.3938V19.8388C25.5166 19.4018 25.8706 19.0488 26.3066 19.0488C26.7426 19.0488 27.0966 19.4028 27.0966 19.8388V22.3938C27.0966 22.8308 26.7426 23.1838 26.3066 23.1838Z" fill="#8595AA"/>
</g>
<defs>
<clipPath id="clip0_925_2994">
<rect width="40" height="40" fill="white" transform="translate(0.25 0.922852)"/>
</clipPath>
</defs>
</svg>
