<svg width="24" height="24" viewBox="0 0 24 24" fill="currentColor" xmlns="http://www.w3.org/2000/svg">
<path fill-rule="evenodd" clip-rule="evenodd" d="M12 1C18.0751 1 23 5.92487 23 12C23 18.0751 18.0751 23 12 23C5.92487 23 1 18.0751 1 12C1 5.92487 5.92487 1 12 1ZM17.707 8.29297C17.3165 7.90244 16.6835 7.90244 16.293 8.29297L11 13.5859L8.70703 11.293L8.63086 11.2246C8.23809 10.9043 7.65908 10.9269 7.29297 11.293C6.92689 11.6591 6.90427 12.2381 7.22461 12.6309L7.29297 12.707L10.293 15.707C10.6835 16.0975 11.3165 16.0975 11.707 15.707L17.707 9.70703C18.0975 9.31652 18.0975 8.6835 17.707 8.29297Z" fill="currentColor"/>
</svg>
