<svg width="24" height="24" viewBox="0 0 24 24" fill="currentColor" xmlns="http://www.w3.org/2000/svg">
<path d="M12.0266 14.3379C15.7734 14.3379 18.5037 16.1788 19.5198 19.3916L19.6379 19.7656L19.304 19.9697C17.318 21.1797 14.9431 21.7695 12.0471 21.7695H11.9524C9.09646 21.7695 6.6545 21.1637 4.69653 19.9697L4.36255 19.7656L4.48071 19.3916C5.49881 16.171 8.2426 14.317 11.9993 14.3379H12.0266Z" fill="currentColor"/>
<path d="M12.0002 2.23242C14.7232 2.23242 16.9397 4.44788 16.9397 7.17188C16.9395 9.89467 14.7231 12.1094 12.0002 12.1094C9.2774 12.1094 7.06299 9.89466 7.06274 7.17188C7.06274 4.44788 9.27725 2.23243 12.0002 2.23242Z" fill="currentColor"/>
</svg>
