<svg width="24" height="24" viewBox="0 0 24 24" fill="currentColor" xmlns="http://www.w3.org/2000/svg">
<path d="M8.36485 14.2725C11.9654 14.2725 14.5887 16.0637 15.565 19.1885C15.6309 19.4004 15.5458 19.6333 15.357 19.75C13.4486 20.9267 11.1672 21.5 8.38438 21.5H8.29356C5.54909 21.5 3.20244 20.9112 1.3209 19.75C1.13223 19.6333 1.04714 19.4003 1.1129 19.1885C2.09112 16.0559 4.72832 14.2521 8.33848 14.2725H8.36485Z" fill="currentColor"/>
<path d="M15.6861 14.2725C19.2867 14.2725 21.91 16.0637 22.8863 19.1885C22.9521 19.4002 22.8678 19.6332 22.6793 19.75C20.771 20.9267 18.4893 21.4999 15.7066 21.5H15.6149C15.0645 21.5 14.5301 21.475 14.0123 21.4277C14.648 21.1753 15.2541 20.8741 15.8307 20.5186L15.8863 20.4805C16.3983 20.164 16.5823 19.5986 16.4566 19.0322L16.4264 18.9189L16.317 18.5908C15.6932 16.8354 14.5854 15.485 13.1217 14.5977C13.8982 14.3781 14.748 14.2673 15.6598 14.2725H15.6861Z" fill="currentColor"/>
<path d="M8.33946 2.5C10.9561 2.5 13.0856 4.65443 13.0856 7.30371C13.0855 9.95193 10.9561 12.1064 8.33946 12.1064C5.72286 12.1064 3.59444 9.95193 3.59434 7.30371C3.59434 4.65443 5.72279 2.5 8.33946 2.5Z" fill="currentColor"/>
<path d="M15.6607 2.5C18.2774 2.5 20.4068 4.65443 20.4068 7.30371C20.4067 9.95193 18.2774 12.1064 15.6607 12.1064C14.512 12.1064 13.4571 11.6911 12.6354 11.001C13.4781 10.003 13.9879 8.7113 13.9879 7.30371C13.9879 5.89559 13.4792 4.60263 12.6363 3.60449C13.4579 2.91489 14.5125 2.50007 15.6607 2.5Z" fill="currentColor"/>
</svg>
