<svg width="21" height="20" viewBox="0 0 21 20" fill="none" xmlns="http://www.w3.org/2000/svg">
<path d="M17.75 8.33342H2.75M13.5833 1.66675V5.00008M6.91667 1.66675V5.00008M6.75 18.3334H13.75C15.1501 18.3334 15.8502 18.3334 16.385 18.0609C16.8554 17.8212 17.2378 17.4388 17.4775 16.9684C17.75 16.4336 17.75 15.7335 17.75 14.3334V7.33342C17.75 5.93328 17.75 5.23322 17.4775 4.69844C17.2378 4.22803 16.8554 3.84558 16.385 3.6059C15.8502 3.33341 15.1501 3.33341 13.75 3.33341H6.75C5.34987 3.33341 4.6498 3.33341 4.11502 3.6059C3.64462 3.84558 3.26217 4.22803 3.02248 4.69844C2.75 5.23322 2.75 5.93328 2.75 7.33341V14.3334C2.75 15.7335 2.75 16.4336 3.02248 16.9684C3.26217 17.4388 3.64462 17.8212 4.11502 18.0609C4.6498 18.3334 5.34987 18.3334 6.75 18.3334Z" stroke="#B3B3B3" stroke-width="1.5" stroke-linecap="round" stroke-linejoin="round"/>
</svg>
