<svg width="693" height="619" viewBox="0 0 693 619" fill="none" xmlns="http://www.w3.org/2000/svg">
<g clip-path="url(#clip0_1135_1907)">
<rect width="693" height="619" fill="white"/>
<path d="M150.5 184.057C186 57.0569 355.221 30.0683 320.821 98.8683C277.821 184.868 47.3213 431.368 196.821 350.368C346.321 269.368 579.5 94 631.5 162.557C682.349 229.596 367.5 447.557 631.5 447.557" stroke="url(#paint0_linear_1135_1907)" stroke-width="20" stroke-linecap="round" stroke-linejoin="round"/>
<path d="M144.943 569.975C139.452 575.466 139.452 584.37 144.943 589.861L184.716 629.634C190.207 635.125 199.111 635.125 204.602 629.634L230.341 603.895L170.682 544.236L144.943 569.975Z" fill="#444444"/>
<rect width="84.3704" height="457.631" transform="matrix(0.707107 0.707107 0.707107 -0.707107 170.682 544.236)" fill="#888888"/>
<path d="M553.936 280.301L494.277 220.642L545.512 199.236L560.427 214.15L575.341 229.065L553.936 280.301Z" fill="#EEEEEE"/>
<path d="M560.425 214.151L575.34 229.066L594.106 184.15C595.075 181.83 592.746 179.501 590.427 180.47L545.511 199.236L560.425 214.151Z" fill="#444444"/>
<path d="M307.133 494.665C308.728 502.695 308.709 510.962 307.078 518.985L304.875 529.821C298.237 562.467 323.186 593 356.5 593V593V593C393.216 593 419.782 557.941 409.85 522.594L409.049 519.745C406.662 511.249 406.257 502.318 407.865 493.64L430.042 373.996C431.766 364.695 426.746 355.476 417.811 352.372C401.659 346.76 375.826 339 356.5 339C337.254 339 311.556 346.696 295.391 352.302C286.364 355.432 281.342 364.794 283.203 374.166L307.133 494.665Z" fill="#D9D9D9"/>
<path d="M296 180C296 146.311 323.311 119 357 119V119C390.689 119 418 146.311 418 180V319.798V439C418 440.105 417.105 441 416 441H298C296.895 441 296 440.105 296 439V319.798V180Z" fill="#C4C4C4"/>
<path d="M244 202C244 181.565 260.565 165 281 165V165V431.275V590C281 591.105 280.105 592 279 592H246C244.895 592 244 591.105 244 590V431.275V202Z" fill="#B9B9B9"/>
<path d="M470 202C470 181.565 453.435 165 433 165V165V431.275V590C433 591.105 433.895 592 435 592H468C469.105 592 470 591.105 470 590V431.275V202Z" fill="#B9B9B9"/>
<path d="M323.709 522.38C326.769 521.222 330.091 520.937 333.304 521.557L337.124 522.294C340.205 522.888 343.384 521.991 345.699 519.873V519.873C351.249 514.795 360.211 517.503 362.021 524.804L365.375 538.331C367.277 546 364.014 554.02 357.299 558.184L332.964 573.275C332.196 573.751 331.482 574.309 330.835 574.938V574.938C324.905 580.706 315.11 579.23 311.142 571.972L300.887 553.212C299.688 551.019 298.953 548.604 298.726 546.116V546.116C297.984 537.956 302.773 530.303 310.436 527.403L323.709 522.38Z" fill="#D9D9D9"/>
<path d="M254.539 538.361C255.518 535.228 258.22 532.945 261.472 532.501L279.641 530.022C281.102 529.822 282.578 529.746 284.052 529.794L305.296 530.48C309.442 530.614 312.57 534.291 312.038 538.405V538.405C311.565 542.07 308.334 544.742 304.645 544.519L290.16 543.643C288.559 543.546 286.953 543.62 285.368 543.864L261.742 547.498C258.54 547.99 255.448 546.111 254.411 543.042V543.042C253.96 541.707 253.944 540.263 254.364 538.918L254.539 538.361Z" fill="url(#paint1_linear_1135_1907)"/>
<path d="M294.685 491.847C292.532 494.664 292.531 498.573 294.681 501.393L305.177 515.158L310.111 521.684C311.46 523.467 311.649 525.871 310.597 527.843V527.843C308.499 531.778 311.496 536.498 315.95 536.272L334.943 535.31C341.297 534.988 343.616 526.786 338.371 523.185V523.185C337.69 522.717 337.102 522.127 336.638 521.444L333.721 517.159C330.973 513.121 327.392 509.718 323.22 507.178L320.768 505.684C317.808 503.883 315.157 501.618 312.915 498.976L306.464 491.375C305.22 489.91 303.461 488.979 301.549 488.777V488.777C298.953 488.502 296.402 489.6 294.817 491.674L294.685 491.847Z" fill="url(#paint2_linear_1135_1907)"/>
<path d="M294.656 588.359L306.578 588.66C310.996 588.771 315.311 587.316 318.76 584.553L329.263 576.137C332.045 573.909 332.358 569.791 329.945 567.167V567.167C327.623 564.643 323.686 564.503 321.191 566.856L315.762 571.978C313.615 574.003 310.866 575.27 307.933 575.587L294.245 577.065C291.951 577.313 290.037 578.927 289.407 581.147V581.147C288.431 584.58 290.836 588.048 294.393 588.338L294.656 588.359Z" fill="url(#paint3_linear_1135_1907)"/>
<path d="M276.604 582.27C276.955 582.258 277.305 582.21 277.647 582.126L301.021 576.376L313.695 571.825C317.909 570.312 318.878 564.788 315.43 561.931V561.931C313.859 560.629 311.719 560.252 309.797 560.938L294.048 566.56L281.873 569.088C280.55 569.363 279.272 569.82 278.075 570.447L274.185 572.485C272.821 573.2 271.845 574.483 271.521 575.988L271.488 576.143C270.794 579.363 273.311 582.378 276.604 582.27V582.27Z" fill="url(#paint4_linear_1135_1907)"/>
<path d="M261.481 569.804C261.348 566.761 262.971 563.911 265.655 562.472L282.263 553.569C283.484 552.914 284.754 552.358 286.062 551.904L306.61 544.784C310.336 543.493 314.359 545.717 315.249 549.558V549.558C316.029 552.93 314.088 556.336 310.789 557.382L296.452 561.928C294.985 562.393 293.57 563.004 292.226 563.753L270.93 575.614C268.292 577.084 264.984 576.49 263.022 574.195V574.195C262.101 573.118 261.567 571.765 261.505 570.349L261.481 569.804Z" fill="url(#paint5_linear_1135_1907)"/>
<path d="M343.297 512.881C342.102 506.132 347.056 499.849 353.897 499.435V499.435C358.283 499.169 362.434 501.432 364.588 505.262L376.003 525.564C378.095 529.286 381.645 531.967 385.797 532.962L395.581 535.306C404.059 537.338 406.466 548.248 399.63 553.658V553.658C398.71 554.386 397.674 554.954 396.566 555.338L379.053 561.405C370.727 564.289 361.485 562.188 355.225 555.987V555.987C351.832 552.626 349.563 548.297 348.731 543.595L343.297 512.881Z" fill="#BFBFBF"/>
<path d="M369.453 537.316C346.686 524.199 346.687 491.345 369.455 478.229L387.498 467.835C389.632 466.606 392.035 465.921 394.496 465.841L413.657 465.217C421.192 464.972 424.295 455.438 418.348 450.805L416.658 449.488C413.778 447.245 413.482 442.998 416.023 440.376L417.229 439.133C419.88 436.397 418.691 431.826 415.044 430.728V430.728C413.369 430.224 412.07 428.894 411.607 427.207L401.251 389.505C395.892 369.996 412.988 351.689 432.819 355.703V355.703C435.946 356.336 438.936 357.515 441.654 359.186L454.952 367.363C466.835 374.67 477.057 384.382 484.962 395.875L525.465 454.759C526.341 456.032 527.383 457.182 528.563 458.179V458.179C536.345 464.747 536.808 476.58 529.563 483.736L524.577 488.66C523.728 489.499 522.943 490.4 522.23 491.357L493.721 529.587C484.523 541.921 472.603 551.966 458.889 558.941L450.768 563.071C447.016 564.979 442.995 566.301 438.843 566.991L404.046 572.772C394.85 574.3 386.71 566.682 387.625 557.405V557.405C388.172 551.865 385.423 546.518 380.599 543.739L369.453 537.316Z" fill="url(#paint6_linear_1135_1907)"/>
<path d="M122.954 387.923C125.798 389.541 128.136 391.918 129.708 394.787L131.578 398.199C133.085 400.95 135.805 402.826 138.912 403.258V403.258C146.364 404.292 149.996 412.921 145.528 418.973L137.251 430.185C132.558 436.542 124.3 439.146 116.81 436.631L89.6644 427.518C88.8082 427.23 87.9233 427.037 87.0253 426.94V426.94C78.8009 426.053 73.6883 417.568 76.7466 409.882L84.6512 390.017C85.575 387.695 86.9659 385.588 88.7377 383.826V383.826C94.5475 378.049 103.497 376.855 110.618 380.906L122.954 387.923Z" fill="#D9D9D9"/>
<path d="M66.5201 344.851C69.5572 343.607 73.0398 344.231 75.4561 346.452L88.9561 358.862C90.0418 359.86 91.0418 360.947 91.9455 362.113L104.969 378.911C107.511 382.189 106.675 386.944 103.168 389.158V389.158C100.044 391.132 95.9247 390.348 93.7433 387.365L85.1773 375.652C84.2307 374.357 83.1487 373.168 81.9499 372.103L64.0791 356.227C61.6574 354.076 61.1323 350.495 62.8342 347.739V347.739C63.5745 346.54 64.6757 345.607 65.9797 345.072L66.5201 344.851Z" fill="url(#paint7_linear_1135_1907)"/>
<path d="M127.951 346.093C124.408 346.233 121.397 348.726 120.597 352.18L116.693 369.045L114.816 377.007C114.303 379.183 112.572 380.863 110.382 381.311V381.311C106.013 382.205 104.291 387.524 107.306 390.81L120.163 404.823C124.464 409.51 132.26 406.064 131.687 399.728V399.728C131.613 398.905 131.693 398.076 131.922 397.282L133.362 392.302C134.718 387.61 135.055 382.681 134.349 377.848L133.934 375.007C133.434 371.579 133.486 368.092 134.09 364.68L135.829 354.863C136.164 352.971 135.758 351.022 134.694 349.421V349.421C133.25 347.246 130.777 345.982 128.168 346.085L127.951 346.093Z" fill="url(#paint8_linear_1135_1907)"/>
<path d="M53.6103 407.641L60.984 417.013C63.7168 420.487 67.5899 422.882 71.9182 423.775L85.0994 426.494C88.59 427.214 91.9608 424.829 92.442 421.297V421.297C92.9051 417.898 90.5008 414.777 87.0966 414.357L79.689 413.444C76.761 413.083 74.0313 411.774 71.9161 409.717L62.0457 400.12C60.3915 398.511 57.9269 398.067 55.8155 398.997V398.997C52.5498 400.436 51.4132 404.5 53.4586 407.425L53.6103 407.641Z" fill="url(#paint9_linear_1135_1907)"/>
<path d="M46.7829 389.854C47.0162 390.117 47.2764 390.356 47.5591 390.566L66.8986 404.898L78.4885 411.754C82.3425 414.034 87.2138 411.257 87.2145 406.779V406.779C87.2147 404.739 86.1398 402.849 84.3859 401.807L70.0093 393.265L60.2954 385.502C59.2399 384.659 58.0723 383.967 56.826 383.445L52.7746 381.749C51.3545 381.155 49.7438 381.222 48.3781 381.933L48.2372 382.006C45.315 383.526 44.5994 387.388 46.7829 389.854V389.854Z" fill="url(#paint10_linear_1135_1907)"/>
<path d="M46.7355 370.257C48.994 368.213 52.2238 367.644 55.0446 368.793L72.4958 375.903C73.7783 376.425 75.0172 377.048 76.2011 377.767L94.7921 389.048C98.1635 391.093 99.0179 395.61 96.6267 398.746V398.746C94.5282 401.498 90.6672 402.175 87.7571 400.302L75.1099 392.162C73.8164 391.329 72.4425 390.629 71.0088 390.072L48.289 381.239C45.4745 380.145 43.8214 377.219 44.3367 374.244V374.244C44.5785 372.848 45.2806 371.573 46.331 370.623L46.7355 370.257Z" fill="url(#paint11_linear_1135_1907)"/>
<path d="M142.764 396.948C147.2 391.722 155.198 391.528 159.882 396.533V396.533C162.884 399.74 163.79 404.381 162.214 408.483L153.862 430.224C152.331 434.21 152.531 438.654 154.414 442.486L158.85 451.516C162.694 459.342 155.828 468.155 147.3 466.342V466.342C146.153 466.098 145.054 465.663 144.052 465.054L128.208 455.438C120.675 450.866 116.398 442.409 117.179 433.632V433.632C117.603 428.875 119.489 424.367 122.58 420.726L142.764 396.948Z" fill="#BFBFBF"/>
<path d="M140.633 432.678C136.211 406.778 161.512 385.82 186.137 394.985L205.652 402.249C207.959 403.108 210.02 404.522 211.652 406.366L224.356 420.723C229.352 426.37 238.673 422.677 238.447 415.142L238.383 413.001C238.273 409.352 241.355 406.414 244.995 406.699L246.721 406.834C250.519 407.13 253.281 403.299 251.8 399.789V399.789C251.119 398.178 251.316 396.33 252.319 394.897L274.746 362.87C286.351 346.297 311.355 347.784 320.915 365.616V365.616C322.422 368.427 323.422 371.483 323.869 374.642L326.055 390.099C328.009 403.911 327.051 417.979 323.244 431.398L303.737 500.154C303.315 501.64 303.094 503.176 303.08 504.721V504.721C302.986 514.904 294.169 522.809 284.036 521.794L277.063 521.096C275.876 520.978 274.681 520.949 273.49 521.009L225.862 523.444C210.496 524.229 195.156 521.458 181.036 515.346L172.674 511.727C168.812 510.056 165.229 507.802 162.049 505.045L135.398 481.936C128.355 475.829 129.028 464.701 136.757 459.488V459.488C141.372 456.375 143.736 450.847 142.799 445.359L140.633 432.678Z" fill="url(#paint12_linear_1135_1907)"/>
<path d="M291.614 350.061C292.374 350.061 293.11 349.96 293.844 349.763C299.671 348.197 328.188 341 359.784 341C381.662 341 412.912 348.3 419.081 349.795C419.811 349.972 420.542 350.061 421.293 350.061V350.061C425.755 350.061 429.564 353.285 430.301 357.686L473.618 616.453C474.502 621.736 473.23 627.152 470.088 631.49L469.91 631.735C466.149 636.926 460.126 640 453.715 640H267.381C260.256 640 253.81 635.773 250.969 629.239V629.239C249.68 626.275 249.218 623.018 249.632 619.813L283.534 357.165C284.058 353.102 287.518 350.061 291.614 350.061V350.061Z" fill="#676767"/>
<path d="M324.536 354.857C328.307 345.94 344.495 345 357.5 345C370.505 345 386.693 345.94 390.464 354.857V354.857C392.372 359.371 387.893 363.701 383.459 365.788L373.935 370.268C363.526 375.165 351.474 375.165 341.065 370.268L331.541 365.788C327.107 363.701 322.628 359.371 324.536 354.857V354.857Z" fill="#D3D3D3"/>
<path d="M340 316C340 310.477 344.477 306 350 306H365C370.523 306 375 310.477 375 316L375 350.34C375 355.863 370.523 360.34 365 360.34H350C344.477 360.34 340 355.863 340 350.34L340 316Z" fill="#D3D3D3"/>
<path d="M445.007 266.127C446.325 256.542 438.877 248 429.202 248V248C421.542 248 414.963 253.444 413.53 260.969L410.227 278.309C410.077 279.097 409.793 279.854 409.389 280.547L404.444 289.024C401.722 293.691 407.317 298.757 411.692 295.586V295.586C412.225 295.199 412.83 294.922 413.471 294.77L427.31 291.486C436.164 289.385 442.817 282.058 444.057 273.043L445.007 266.127Z" fill="#D9D9D9"/>
<path d="M270.493 266.127C269.175 256.542 276.623 248 286.298 248V248C293.958 248 300.537 253.444 301.97 260.969L305.273 278.309C305.423 279.097 305.707 279.854 306.111 280.547L311.056 289.024C313.778 293.691 308.183 298.757 303.808 295.586V295.586C303.275 295.199 302.67 294.922 302.029 294.77L288.19 291.486C279.336 289.385 272.683 282.058 271.443 273.043L270.493 266.127Z" fill="#D9D9D9"/>
<path d="M268 208C268 158.847 307.847 119 357 119V119C406.153 119 446 158.847 446 208V230V230C446 267.003 416.003 297 379 297H335C297.997 297 268 267.003 268 230V230V208Z" fill="#C4C4C4"/>
<path d="M283.075 206.572C279.355 182.345 298.101 160.5 322.612 160.5H392.478C416.612 160.5 435.249 181.711 432.146 205.644L428.96 230.207C428.654 232.568 428.138 234.897 427.417 237.167L408.646 296.29C405.358 306.648 397.997 315.222 388.256 320.04L374.367 326.91C363.399 332.335 350.55 332.441 339.493 327.198L325.172 320.406C314.593 315.389 306.743 305.99 303.693 294.686L287.25 233.756L283.075 206.572Z" fill="#D9D9D9"/>
<rect width="6" height="12" rx="3" transform="matrix(-0.228485 0.973547 0.973547 0.228485 320.541 249.765)" fill="#6A6A6A"/>
<rect x="360.046" y="260" width="8.83044" height="5.04596" rx="2.52298" transform="rotate(90 360.046 260)" fill="#C4C4C4"/>
<path d="M357.742 287.5C359.916 287.5 361.754 289.108 362.044 291.263L362.536 294.927C362.933 297.877 360.638 300.5 357.662 300.5C354.601 300.5 352.284 297.733 352.82 294.72L353.469 291.079C353.838 289.008 355.639 287.5 357.742 287.5Z" fill="#6A6A6A" stroke="#6A6A6A" stroke-width="3"/>
<path d="M279.596 191.652C285.827 153.786 318.56 126 356.935 126V126C395.141 126 427.781 153.547 434.201 191.21L436.452 204.42C437.469 210.386 437.035 216.508 435.187 222.271L424.859 254.471C423.701 258.082 421.539 261.29 418.627 263.72L413.645 267.876C412.366 268.943 410.42 268.071 410.365 266.406L409.28 233.491C409.095 227.893 407.737 222.396 405.293 217.356L395.18 196.5V196.5C393.516 192.91 388.189 193.746 387.706 197.674L382.662 238.688C381.692 246.574 374.993 252.5 367.047 252.5H349.171C339.451 252.5 331.193 245.388 329.752 235.775L324.087 197.979C323.361 193.135 317.016 191.782 314.378 195.909V195.909C314.127 196.301 313.929 196.725 313.789 197.169L306.857 219.12C305.626 223.017 305 227.079 305 231.166V266.598C305 268.228 303.155 269.173 301.832 268.222L301.288 267.83C294.223 262.749 289.007 255.502 286.433 247.189L278.625 221.976C276.899 216.402 276.493 210.503 277.441 204.745L279.596 191.652Z" fill="#C4C4C4"/>
<rect x="392.79" y="249.753" width="6" height="12" rx="3" transform="rotate(75.9681 392.79 249.753)" fill="#6A6A6A"/>
<path d="M380.07 245.009L393.947 245.009" stroke="#6A6A6A" stroke-width="4" stroke-linecap="round"/>
<path d="M333.322 245.009L319.446 245.009" stroke="#6A6A6A" stroke-width="4" stroke-linecap="round"/>
<path d="M60.4578 451.017L58.2126 434.643C53.654 401.401 59.9041 367.572 76.0381 338.156L104.25 286.735L117.51 290.543L130.77 294.351L127.402 352.906C125.473 386.405 112.824 418.395 91.3199 444.15L80.7296 456.838C74.3142 464.526 61.8242 460.939 60.465 451.019L60.4578 451.017Z" fill="#4A4A4A"/>
<path d="M153.966 256.598L140.759 273.405C136.621 278.669 133.554 284.696 131.73 291.143L130.723 294.703L104.145 287.071L105.195 283.414C107.025 277.043 107.602 270.379 106.895 263.79L104.606 242.428C103.887 235.719 107.146 229.229 112.948 225.791C120.15 221.524 131.326 215.238 139.528 207.245L130.343 239.229C126.096 239.365 121.034 241.812 119.795 246.112C118.263 251.446 121.348 257.015 126.684 258.552C132.021 260.088 137.588 256.999 139.124 251.662C140.36 247.357 137.367 242.598 133.835 240.231L143.019 208.247C145.731 219.374 151.868 230.632 155.709 238.07C158.807 244.067 158.123 251.293 153.956 256.603L153.966 256.598Z" fill="#C2C2C2"/>
</g>
<defs>
<linearGradient id="paint0_linear_1135_1907" x1="91" y1="106.057" x2="452.5" y2="373.057" gradientUnits="userSpaceOnUse">
<stop/>
<stop offset="1" stop-color="#888888"/>
</linearGradient>
<linearGradient id="paint1_linear_1135_1907" x1="295.563" y1="537.085" x2="254.576" y2="533.64" gradientUnits="userSpaceOnUse">
<stop stop-color="#D9D9D9"/>
<stop offset="1" stop-color="#ADADAD"/>
</linearGradient>
<linearGradient id="paint2_linear_1135_1907" x1="318.563" y1="520.186" x2="288.492" y2="497.161" gradientUnits="userSpaceOnUse">
<stop stop-color="#D9D9D9"/>
<stop offset="1" stop-color="#ADADAD"/>
</linearGradient>
<linearGradient id="paint3_linear_1135_1907" x1="318.823" y1="571.42" x2="290.473" y2="587.266" gradientUnits="userSpaceOnUse">
<stop stop-color="#D9D9D9"/>
<stop offset="1" stop-color="#ADADAD"/>
</linearGradient>
<linearGradient id="paint4_linear_1135_1907" x1="305.055" y1="567.851" x2="275.119" y2="580.448" gradientUnits="userSpaceOnUse">
<stop stop-color="#D9D9D9"/>
<stop offset="1" stop-color="#ADADAD"/>
</linearGradient>
<linearGradient id="paint5_linear_1135_1907" x1="299.394" y1="554.191" x2="259.824" y2="565.346" gradientUnits="userSpaceOnUse">
<stop stop-color="#D9D9D9"/>
<stop offset="1" stop-color="#ADADAD"/>
</linearGradient>
<linearGradient id="paint6_linear_1135_1907" x1="486.893" y1="561.223" x2="350.214" y2="432.673" gradientUnits="userSpaceOnUse">
<stop stop-color="#626262"/>
<stop offset="1" stop-color="#444444"/>
</linearGradient>
<linearGradient id="paint7_linear_1135_1907" x1="93.6742" y1="375.629" x2="70.1795" y2="341.868" gradientUnits="userSpaceOnUse">
<stop stop-color="#D9D9D9"/>
<stop offset="1" stop-color="#ADADAD"/>
</linearGradient>
<linearGradient id="paint8_linear_1135_1907" x1="121.36" y1="382.56" x2="119.907" y2="344.714" gradientUnits="userSpaceOnUse">
<stop stop-color="#D9D9D9"/>
<stop offset="1" stop-color="#ADADAD"/>
</linearGradient>
<linearGradient id="paint9_linear_1135_1907" x1="82.072" y1="415.446" x2="51.7838" y2="403.722" gradientUnits="userSpaceOnUse">
<stop stop-color="#D9D9D9"/>
<stop offset="1" stop-color="#ADADAD"/>
</linearGradient>
<linearGradient id="paint10_linear_1135_1907" x1="76.0368" y1="402.566" x2="47.2391" y2="387.549" gradientUnits="userSpaceOnUse">
<stop stop-color="#D9D9D9"/>
<stop offset="1" stop-color="#ADADAD"/>
</linearGradient>
<linearGradient id="paint11_linear_1135_1907" x1="82.9449" y1="389.492" x2="49.1115" y2="366.136" gradientUnits="userSpaceOnUse">
<stop stop-color="#D9D9D9"/>
<stop offset="1" stop-color="#ADADAD"/>
</linearGradient>
<linearGradient id="paint12_linear_1135_1907" x1="197.144" y1="538.368" x2="208.945" y2="351.106" gradientUnits="userSpaceOnUse">
<stop stop-color="#626262"/>
<stop offset="1" stop-color="#444444"/>
</linearGradient>
<clipPath id="clip0_1135_1907">
<rect width="693" height="619" fill="white"/>
</clipPath>
</defs>
</svg>
