<svg width="41" height="41" viewBox="0 0 41 41" fill="none" xmlns="http://www.w3.org/2000/svg">
<g clip-path="url(#clip0_925_2974)">
<path fill-rule="evenodd" clip-rule="evenodd" d="M7.64799 38.51C5.86299 38.51 4.41699 37.063 4.41699 35.279V26.02L7.80599 18.08C8.40399 16.68 9.77899 15.772 11.301 15.772H29.2C30.722 15.772 32.097 16.68 32.695 18.08L36.084 26.02V35.279C36.084 37.064 34.637 38.51 32.853 38.51H7.64799Z" fill="#F26300"/>
<path d="M28.3532 18.4668H12.1472C11.3707 18.4668 10.7412 19.0963 10.7412 19.8728V32.7988C10.7412 33.5753 11.3707 34.2048 12.1472 34.2048H28.3532C29.1297 34.2048 29.7592 33.5753 29.7592 32.7988V19.8728C29.7592 19.0963 29.1297 18.4668 28.3532 18.4668Z" fill="#D9DDE0"/>
<path d="M30.6872 21.9009H9.81317C8.99192 21.9009 8.32617 22.5666 8.32617 23.3879V32.3169C8.32617 33.1381 8.99192 33.8039 9.81317 33.8039H30.6872C31.5084 33.8039 32.1742 33.1381 32.1742 32.3169V23.3879C32.1742 22.5666 31.5084 21.9009 30.6872 21.9009Z" fill="white"/>
<path fill-rule="evenodd" clip-rule="evenodd" d="M36.083 26.02H4.41699V35.279C4.41699 37.064 5.86399 38.51 7.64799 38.51H32.852C34.637 38.51 36.083 37.063 36.083 35.279V26.02Z" fill="#FF8A38"/>
<path d="M27.0468 8.32794L20.9138 14.4609C20.5468 14.8279 19.9528 14.8279 19.5868 14.4609L13.4538 8.32794C13.1488 8.02294 13.3648 7.50094 13.7958 7.50094H16.7948C17.0928 7.50094 17.3338 7.25994 17.3338 6.96194V3.79394C17.3338 3.54094 17.5388 3.33594 17.7918 3.33594H22.7088C22.9618 3.33594 23.1668 3.54094 23.1668 3.79394V6.96194C23.1668 7.25994 23.4078 7.50094 23.7058 7.50094H26.7048C27.1358 7.50094 27.3518 8.02294 27.0468 8.32794Z" fill="#F26300"/>
</g>
<defs>
<clipPath id="clip0_925_2974">
<rect width="40" height="40" fill="white" transform="translate(0.25 0.922852)"/>
</clipPath>
</defs>
</svg>
