<svg width="85" height="25" viewBox="0 0 85 25" fill="none" xmlns="http://www.w3.org/2000/svg">
<path d="M82.1362 18.1684C81.5282 18.1684 81.0242 17.9844 80.6242 17.6164C80.2402 17.2324 80.0482 16.7604 80.0482 16.2004C80.0482 15.6404 80.2402 15.1764 80.6242 14.8084C81.0242 14.4244 81.5282 14.2324 82.1362 14.2324C82.7282 14.2324 83.2162 14.4244 83.6002 14.8084C83.9842 15.1764 84.1762 15.6404 84.1762 16.2004C84.1762 16.7604 83.9842 17.2324 83.6002 17.6164C83.2162 17.9844 82.7282 18.1684 82.1362 18.1684Z" fill="#F26300"/>
<path d="M78.1957 11.0643C78.1957 11.5443 78.1637 11.9763 78.0997 12.3603H68.3797C68.4597 13.3203 68.7957 14.0723 69.3877 14.6163C69.9797 15.1603 70.7077 15.4323 71.5717 15.4323C72.8197 15.4323 73.7077 14.8963 74.2357 13.8243H77.8597C77.4757 15.1043 76.7397 16.1603 75.6517 16.9923C74.5637 17.8083 73.2277 18.2163 71.6437 18.2163C70.3637 18.2163 69.2117 17.9363 68.1877 17.3763C67.1797 16.8003 66.3877 15.9923 65.8117 14.9523C65.2517 13.9123 64.9717 12.7123 64.9717 11.3523C64.9717 9.97628 65.2517 8.76828 65.8117 7.72828C66.3717 6.68828 67.1557 5.88828 68.1637 5.32828C69.1717 4.76828 70.3317 4.48828 71.6437 4.48828C72.9077 4.48828 74.0357 4.76028 75.0277 5.30428C76.0357 5.84828 76.8117 6.62428 77.3557 7.63228C77.9157 8.62428 78.1957 9.76828 78.1957 11.0643ZM74.7157 10.1043C74.6997 9.24028 74.3877 8.55228 73.7797 8.04028C73.1717 7.51228 72.4277 7.24828 71.5477 7.24828C70.7157 7.24828 70.0117 7.50428 69.4357 8.01628C68.8757 8.51228 68.5317 9.20828 68.4037 10.1043H74.7157Z" fill="#424242"/>
<path d="M62.516 0.240234V18.0002H59.156V0.240234H62.516Z" fill="#424242"/>
<path d="M46.2504 6.62428C46.6824 6.01628 47.2744 5.51228 48.0264 5.11228C48.7944 4.69628 49.6664 4.48828 50.6424 4.48828C51.7784 4.48828 52.8024 4.76828 53.7144 5.32828C54.6424 5.88828 55.3704 6.68828 55.8984 7.72828C56.4424 8.75228 56.7144 9.94428 56.7144 11.3043C56.7144 12.6643 56.4424 13.8723 55.8984 14.9283C55.3704 15.9683 54.6424 16.7763 53.7144 17.3523C52.8024 17.9283 51.7784 18.2163 50.6424 18.2163C49.6664 18.2163 48.8024 18.0163 48.0504 17.6163C47.3144 17.2163 46.7144 16.7123 46.2504 16.1043V24.3363H42.8904V4.70428H46.2504V6.62428ZM53.2824 11.3043C53.2824 10.5043 53.1144 9.81628 52.7784 9.24028C52.4584 8.64828 52.0264 8.20028 51.4824 7.89628C50.9544 7.59228 50.3784 7.44028 49.7544 7.44028C49.1464 7.44028 48.5704 7.60028 48.0264 7.92028C47.4984 8.22428 47.0664 8.67228 46.7304 9.26428C46.4104 9.85628 46.2504 10.5523 46.2504 11.3523C46.2504 12.1523 46.4104 12.8483 46.7304 13.4403C47.0664 14.0323 47.4984 14.4883 48.0264 14.8083C48.5704 15.1123 49.1464 15.2643 49.7544 15.2643C50.3784 15.2643 50.9544 15.1043 51.4824 14.7843C52.0264 14.4643 52.4584 14.0083 52.7784 13.4163C53.1144 12.8243 53.2824 12.1203 53.2824 11.3043Z" fill="#424242"/>
<path d="M36.5473 6.76772C36.9793 6.06372 37.5393 5.51172 38.2273 5.11172C38.9313 4.71172 39.7313 4.51172 40.6273 4.51172V8.03972H39.7393C38.6833 8.03972 37.8833 8.28772 37.3393 8.78372C36.8113 9.27972 36.5473 10.1437 36.5473 11.3757V17.9997H33.1873V4.70372H36.5473V6.76772Z" fill="#424242"/>
<path d="M16.0576 11.3043C16.0576 9.96028 16.3216 8.76828 16.8496 7.72828C17.3936 6.68828 18.1216 5.88828 19.0336 5.32828C19.9616 4.76828 20.9936 4.48828 22.1296 4.48828C23.1216 4.48828 23.9856 4.68828 24.7216 5.08828C25.4736 5.48828 26.0736 5.99228 26.5216 6.60028V4.70428H29.9056V18.0003H26.5216V16.0563C26.0896 16.6803 25.4896 17.2003 24.7216 17.6163C23.9696 18.0163 23.0976 18.2163 22.1056 18.2163C20.9856 18.2163 19.9616 17.9283 19.0336 17.3523C18.1216 16.7763 17.3936 15.9683 16.8496 14.9283C16.3216 13.8723 16.0576 12.6643 16.0576 11.3043ZM26.5216 11.3523C26.5216 10.5363 26.3616 9.84028 26.0416 9.26428C25.7216 8.67228 25.2896 8.22428 24.7456 7.92028C24.2016 7.60028 23.6176 7.44028 22.9936 7.44028C22.3696 7.44028 21.7936 7.59228 21.2656 7.89628C20.7376 8.20028 20.3056 8.64828 19.9696 9.24028C19.6496 9.81628 19.4896 10.5043 19.4896 11.3043C19.4896 12.1043 19.6496 12.8083 19.9696 13.4163C20.3056 14.0083 20.7376 14.4643 21.2656 14.7843C21.8096 15.1043 22.3856 15.2643 22.9936 15.2643C23.6176 15.2643 24.2016 15.1123 24.7456 14.8083C25.2896 14.4883 25.7216 14.0403 26.0416 13.4643C26.3616 12.8723 26.5216 12.1683 26.5216 11.3523Z" fill="#424242"/>
<path d="M4.01601 6.62428C4.44801 6.01628 5.04001 5.51228 5.79201 5.11228C6.56001 4.69628 7.43201 4.48828 8.40801 4.48828C9.54401 4.48828 10.568 4.76828 11.48 5.32828C12.408 5.88828 13.136 6.68828 13.664 7.72828C14.208 8.75228 14.48 9.94428 14.48 11.3043C14.48 12.6643 14.208 13.8723 13.664 14.9283C13.136 15.9683 12.408 16.7763 11.48 17.3523C10.568 17.9283 9.54401 18.2163 8.40801 18.2163C7.43201 18.2163 6.56801 18.0163 5.81601 17.6163C5.08001 17.2163 4.48001 16.7123 4.01601 16.1043V24.3363H0.656006V4.70428H4.01601V6.62428ZM11.048 11.3043C11.048 10.5043 10.88 9.81628 10.544 9.24028C10.224 8.64828 9.79201 8.20028 9.24801 7.89628C8.72001 7.59228 8.14401 7.44028 7.52001 7.44028C6.91201 7.44028 6.33601 7.60028 5.79201 7.92028C5.26401 8.22428 4.83201 8.67228 4.49601 9.26428C4.17601 9.85628 4.01601 10.5523 4.01601 11.3523C4.01601 12.1523 4.17601 12.8483 4.49601 13.4403C4.83201 14.0323 5.26401 14.4883 5.79201 14.8083C6.33601 15.1123 6.91201 15.2643 7.52001 15.2643C8.14401 15.2643 8.72001 15.1043 9.24801 14.7843C9.79201 14.4643 10.224 14.0083 10.544 13.4163C10.88 12.8243 11.048 12.1203 11.048 11.3043Z" fill="#424242"/>
</svg>
