<svg width="41" height="41" viewBox="0 0 41 41" fill="none" xmlns="http://www.w3.org/2000/svg">
<path d="M33.6138 36.988H6.91667C6.54848 36.988 6.25 36.6895 6.25 36.3214V12.8645L14.1917 4.92285H33.6138C33.982 4.92285 34.2805 5.22133 34.2805 5.58952V36.3214C34.2805 36.6895 33.982 36.988 33.6138 36.988Z" fill="#E4E6E9"/>
<path d="M6.25 12.8645L14.1917 4.92285V12.1979C14.1917 12.5661 13.8932 12.8645 13.525 12.8645H6.25Z" fill="#C4C5C8"/>
<path d="M34.9202 15.3943C35.1805 15.1339 35.6027 15.1339 35.863 15.3943L37.7486 17.2799C38.009 17.5402 38.009 17.9623 37.7486 18.2227L36.5283 19.443L33.6999 16.6145L34.9202 15.3943Z" fill="#444444"/>
<rect x="33.6997" y="16.6147" width="4" height="21.6963" transform="rotate(45 33.6997 16.6147)" fill="#F26300"/>
<path d="M21.1868 34.7845L18.3584 31.9561L17.3435 34.3851L18.0507 35.0922L18.7578 35.7993L21.1868 34.7845Z" fill="#EEEEEE"/>
<path d="M18.0507 35.0921L18.7578 35.7992L16.6283 36.6889C16.5183 36.7348 16.4079 36.6244 16.4539 36.5144L17.3435 34.385L18.0507 35.0921Z" fill="#444444"/>
</svg>
